<?xml version="1.0" encoding="utf-8"?>
<!-- Generator: Adobe Illustrator 19.1.0, SVG Export Plug-In . SVG Version: 6.00 Build 0)  -->
<svg version="1.1" id="Layer_1" xmlns="http://www.w3.org/2000/svg" xmlns:xlink="http://www.w3.org/1999/xlink" x="0px" y="0px"
	 viewBox="-707 709 24 24" style="enable-background:new -707 709 24 24;" xml:space="preserve">
<style type="text/css">
	.st0{fill:none;}
	.st1{fill:#0094D9;}
	.st2{display:none;fill:none;}
	.st3{display:none;fill:#FFFFFF;}
</style>
<path class="st0" d="M-707,709h24v24h-24V709z"/>
<path class="st1" d="M-690,712h-12c-1.1,0-2,0.9-2,2v14c0,1.1,0.9,2,2,2h14c1.1,0,2-0.9,2-2v-12L-690,712z M-695,728
	c-1.7,0-3-1.3-3-3s1.3-3,3-3s3,1.3,3,3S-693.3,728-695,728z M-692,718h-10v-4h10V718z"/>
<path class="st2" d="M-707,709h24v24h-24V709z"/>
<path class="st3" d="M-690,712h-12c-1.1,0-2,0.9-2,2v14c0,1.1,0.9,2,2,2h14c1.1,0,2-0.9,2-2v-12L-690,712z M-695,728
	c-1.7,0-3-1.3-3-3s1.3-3,3-3s3,1.3,3,3S-693.3,728-695,728z M-692,718h-10v-4h10V718z"/>
</svg>
